<?xml version="1.0" encoding="utf-8"?>
<!-- Generator: Adobe Illustrator 16.0.0, SVG Export Plug-In . SVG Version: 6.00 Build 0)  -->
<!DOCTYPE svg PUBLIC "-//W3C//DTD SVG 1.1//EN" "http://www.w3.org/Graphics/SVG/1.1/DTD/svg11.dtd">
<svg version="1.1" id="Camada_1" xmlns="http://www.w3.org/2000/svg" xmlns:xlink="http://www.w3.org/1999/xlink" x="0px" y="0px"
	 width="800px" height="800px" viewBox="0 0 800 800" enable-background="new 0 0 800 800" xml:space="preserve">
<g>
	<g opacity="0.08">
		<g>
			<defs>
				<rect id="SVGID_1_" x="307.181" y="458.335" width="94.095" height="8.45"/>
			</defs>
			<clipPath id="SVGID_2_">
				<use xlink:href="#SVGID_1_"  overflow="visible"/>
			</clipPath>
			<path clip-path="url(#SVGID_2_)" d="M401.274,462.56c0-2.333-21.063-4.225-47.047-4.225c-25.982,0-47.048,1.892-47.048,4.225
				c0,2.337,21.065,4.226,47.048,4.226C380.212,466.785,401.274,464.896,401.274,462.56"/>
		</g>
	</g>
	<path fill="#5D5D5D" d="M91.757,507.982c-6.949,0-10.885,2.539-16.52,6.948v-4.949H56.457v56.343h18.781v-27.02
		c0-10.7,4.372-15.443,11.321-15.443c5.625,0,9.338,4.413,9.338,10.92v31.543h16.902v-35.292
		C112.799,517.134,104.66,507.982,91.757,507.982"/>
	<path fill="#5D5D5D" d="M167.263,514.05c-5.634-3.863-10.546-6.067-17.714-6.067c-14.668,0-27.275,11.911-27.275,29.334
		c0,17.537,12.736,29.338,27.403,29.338c7.169,0,11.953-2.205,17.587-6.067v5.737h16.903v-56.343h-16.903V514.05z M152.68,551.655
		c-7.721,0-13.346-5.733-13.346-14.339c0-8.487,5.625-14.335,13.346-14.335c7.168,0,13.563,5.848,13.563,14.335
		C166.243,545.922,159.848,551.655,152.68,551.655"/>
	<path fill="#5D5D5D" d="M225.473,550.885c-4.631,0-7.501-2.317-7.501-8.052v-17.826h15.024v-15.025h-15.024v-15.024h-16.903v15.024
		H189.8v15.025h11.269v19.591c0,14.556,8.012,22.057,21.798,22.057c6.285,0,10.678-1.765,14.979-4.082l-4.201-13.893
		C231.329,550.001,227.899,550.885,225.473,550.885"/>
	<path fill="#5D5D5D" d="M283.705,514.05c-3.757-3.863-9.92-6.067-17.092-6.067c-14.667,0-26.963,11.911-26.963,29.334
		c0,17.537,12.267,29.338,26.935,29.338c7.168,0,13.363-2.205,17.12-6.067v5.737h16.902v-56.343h-16.902V514.05z M270.368,551.655
		c-7.721,0-13.345-5.733-13.345-14.339c0-8.487,5.625-14.335,13.345-14.335c7.169,0,13.565,5.848,13.565,14.335
		C283.933,545.922,277.537,551.655,270.368,551.655"/>
	<rect x="313.754" y="485.567" fill="#5D5D5D" width="16.902" height="80.757"/>
	<path fill="#5D5D5D" d="M416.52,507.982c-8.602,0-15.228,3.639-19.638,9.375c-3.75-6.066-11.25-9.375-18.971-9.375
		c-7.168,0-11.57,2.539-17.204,6.728v-4.729h-16.903v56.343h16.903V537.87c0-9.266,5.478-14.009,11.875-14.009
		c5.292,0,10.661,3.973,10.661,10.26v32.203h16.903V537.87c0-9.266,3.656-14.009,10.163-14.009c5.184,0,8.616,3.973,8.616,10.26
		v32.203h18.78v-35.955C437.706,516.918,428.32,507.982,416.52,507.982"/>
	<path fill="#5D5D5D" d="M490.295,514.05c-3.756-3.863-10.035-6.067-17.203-6.067c-14.67,0-27.021,11.911-27.021,29.334
		c0,17.537,12.352,29.338,27.021,29.338c7.168,0,13.447-2.205,17.203-6.067v5.737h18.78v-56.343h-18.78V514.05z M476.734,551.655
		c-7.722,0-13.35-5.733-13.35-14.339c0-8.487,5.628-14.335,13.35-14.335c7.167,0,13.561,5.848,13.561,14.335
		C490.295,545.922,483.901,551.655,476.734,551.655"/>
	<polygon fill="#5D5D5D" points="579.636,509.981 558.351,509.981 540.815,528.763 539.125,528.763 539.125,485.567 
		522.223,485.567 522.223,566.324 539.125,566.324 539.125,543.787 541.587,543.787 559.564,566.324 582.175,566.324 
		555.371,536.829 	"/>
	<path fill="#5D5D5D" d="M610.202,507.982c-16.103,0-29.285,11.911-29.285,29.334c0,17.537,13.26,29.338,29.249,29.338
		c12.685,0,22.731-5.623,27.474-17.313l-15.651-3.199c-2.979,5.403-7.718,6.431-11.8,6.431c-5.954,0-10.473-5.028-11.907-10.663
		h40.383v-4.593C638.664,519.229,625.862,507.982,610.202,507.982 M598.611,530.641c1.658-5.634,6.731-8.712,11.694-8.712
		c5.072,0,9.481,3.078,11.137,8.712H598.611z"/>
	<path fill="#5D5D5D" d="M666.835,520.224v-10.242h-16.902v56.343h16.902v-18.638c0-14.339,5.564-20.802,17.919-20.802h3.198
		l0.771-17.611c-1.32-0.33-1.845-0.426-3.389-0.426C676.292,508.848,670.591,513.605,666.835,520.224"/>
	<path fill="#5D5D5D" d="M728.21,531.362l-13.01-2.647c-3.53-0.774-4.193-2.315-4.193-3.858c0-1.988,1.544-4.3,6.287-4.3
		c5.403,0,8.712,3.085,9.266,6.503l16.1-3.198c-2.204-9.591-11.36-15.879-25.145-15.879c-14.009,0-23.82,7.392-23.82,18.747
		c0,8.712,5.842,14.229,16.102,16.104l11.247,2.205c4.083,0.773,5.517,2.208,5.517,4.078c0,2.429-2.538,4.414-7.171,4.414
		c-4.742,0-9.042-1.765-9.816-6.508l-17.203,3.528c1.874,11.361,13.015,16.104,26.029,16.104c14.559,0,25.145-6.397,25.145-18.638
		C743.543,539.855,738.69,533.567,728.21,531.362"/>
	<g>
		
			<linearGradient id="SVGID_3_" gradientUnits="userSpaceOnUse" x1="-79.397" y1="681.0957" x2="-77.5186" y2="681.0957" gradientTransform="matrix(122.8167 0 0 -122.8167 10012.5625 83989.375)">
			<stop  offset="0" style="stop-color:#00CEA0"/>
			<stop  offset="1" style="stop-color:#005AA0"/>
		</linearGradient>
		<path fill="url(#SVGID_3_)" d="M301.364,233.346c-10.187,0.002-17.746,1.296-21.362,4.062
			c-31.184,23.849-22.467,174.136,19.999,201.842c47.479,30.98,197.437-64.5,191.846-120.917
			C487.138,270.76,356.146,233.342,301.364,233.346z M317.047,359.565c0,3.361-2.745,6.104-6.104,6.104h-3.257
			c-3.356,0-6.103-2.743-6.103-6.104v-3.256c0-3.354,2.747-6.104,6.103-6.104h3.257c3.358,0,6.104,2.749,6.104,6.104V359.565z
			 M426.438,381.972c0,3.355-2.743,6.104-6.104,6.104h-3.255c-3.355,0-6.104-2.748-6.104-6.104v-3.258
			c0-3.356,2.749-6.104,6.104-6.104h3.255c3.361,0,6.104,2.747,6.104,6.104V381.972z M426.438,346.544
			c0,4.974-0.495,9.947-0.617,15.895c-0.241,4.243-4.379,5.215-7.166,5.215c-3.765,0-6.543-1.939-6.543-5.338
			c0.123-6.308,0.512-15.893,0.512-25.964c0-8.008-2.381-14.072-9.779-14.072c-6.915,0-11.917,4.61-12.159,13.103
			c-0.12,4.61,0.07,7.035,0.07,12.86v12.619c0,4.243-2.629,6.792-7.236,6.792c-3.519-0.12-6.39-1.939-6.39-5.581
			c0.121-10.676,0.347-14.192,0.226-27.056c-0.243-6.916-3.313-12.858-10.228-12.858c-4.601,0-8.203,2.227-10.411,6.271
			c-2.459,4.499-2.478,10.375-2.43,15.367c0.003,0.288,0.174,18.643,0.174,18.643c-0.12,3.76-3.273,5.215-6.913,5.215
			c-3.154,0-6.431-1.455-6.431-5.581c0-1.821-0.122-2.791,0-6.551c0-10.111,0.526-20.225,0.526-30.337
			c0.068-4.349,0.624-9.029,0.025-13.327c-0.825-5.932-4.338-10.23-10.598-10.289c-12.614-0.122-14.679,9.341-14.679,20.623
			l0.121,19.048c0,4.369-3.639,5.7-6.672,5.7c-3.762,0-6.674-1.331-6.674-5.82c0-7.28,0.364-14.56,0.244-32.394l-0.121-10.678
			c-0.121-4.973,1.577-7.763,6.795-7.763c4.126,0,5.581,1.941,5.946,5.942l0.245,4.248c2.791-6.672,10.562-10.555,18.083-10.555
			c13.467,0,21.001,8.856,21.001,23.899c0,1.625,0.011,2.993-0.008,4.378c3.502-4.979,9.962-7.565,15.34-7.565
			c8.249,0,14.169,4.61,16.475,10.676c3.396-5.946,10.38-10.555,18.267-10.676c14.801-0.121,21.004,10.19,21.004,23.658V346.544z"/>
	</g>
</g>
</svg>
